<?xml version="1.0" standalone="no"?><!DOCTYPE svg PUBLIC "-//W3C//DTD SVG 1.1//EN" "http://www.w3.org/Graphics/SVG/1.1/DTD/svg11.dtd"><svg t="1627711509128" class="icon" viewBox="0 0 1024 1024" version="1.1" xmlns="http://www.w3.org/2000/svg" p-id="1756" xmlns:xlink="http://www.w3.org/1999/xlink" width="16" height="16"><defs><style type="text/css"></style></defs><path d="M891.46 893.42H132.54c-18.3 0-33.18 14.88-33.18 33.18s14.88 33.18 33.18 33.18h758.93c18.3 0 33.18-14.88 33.18-33.18 0-18.29-14.89-33.18-33.19-33.18zM193.02 734.36c39.62 39.64 92.39 61.46 148.6 61.46S450.6 774 490.22 734.36L769.5 455.08c39.63-39.62 61.46-92.39 61.46-148.59 0-56.21-21.83-108.99-61.46-148.61l-32.12-32.11c-39.7-39.7-92.48-61.56-148.6-61.56-56.13 0-108.92 21.86-148.61 61.56L160.91 405.04c-81.94 81.94-81.94 215.27 0 297.21l32.11 32.11z m307.3-103.94L264.85 394.96 487.1 172.71c27.16-27.15 63.28-42.12 101.68-42.12 38.4 0 74.51 14.97 101.67 42.12l32.12 32.11c56.05 56.06 56.05 147.29 0 203.34L500.32 630.42zM217.93 441.88L453.4 677.34l-10.1 10.1c-56.06 56.04-147.29 56.04-203.34 0l-32.12-32.11c-56.06-56.06-56.06-147.31 0-203.36l10.09-10.09z" p-id="1757"></path></svg>